<?xml version="1.0" encoding="utf-8"?>
<!-- Generator: Adobe Illustrator 27.5.0, SVG Export Plug-In . SVG Version: 6.00 Build 0)  -->
<svg version="1.1" id="Capa_1" xmlns="http://www.w3.org/2000/svg" xmlns:xlink="http://www.w3.org/1999/xlink" x="0px" y="0px"
	 viewBox="0 0 800 800" style="enable-background:new 0 0 800 800;" xml:space="preserve">
<path d="M426,11.9C413.3-4,386.7-4,374,11.9L107.3,345.2c-11.5,14.4-9.1,35.4,5.3,46.9c5.9,4.7,13.2,7.3,20.7,7.3h133.3v233.3
	c0,18.4,14.9,33.3,33.3,33.3h200c18.4,0,33.3-14.9,33.3-33.3V399.4h133.3c18.4,0,33.3-15,33.3-33.4c0-7.5-2.6-14.8-7.3-20.7
	L426,11.9z M500,332.7h-33.3v266.7H333.3V332.7H202.7L400,86.1l197.3,246.6H500z"/>
</svg>
